<?xml version="1.0" encoding="utf-8"?>
<!-- Generator: Adobe Illustrator 23.0.2, SVG Export Plug-In . SVG Version: 6.00 Build 0)  -->
<svg version="1.1" id="Capa_1" xmlns="http://www.w3.org/2000/svg" xmlns:xlink="http://www.w3.org/1999/xlink" x="0px" y="0px"
	 viewBox="0 0 50.6 70.1" style="enable-background:new 0 0 50.6 70.1;" xml:space="preserve">
<title>Rosa de los vientos</title>
<g id="Layer_2">
	<g id="Layer_1-2">
		<path d="M30,3.4c0-0.7,0-1.4-0.2-2.1c0-0.1-0.3-0.3-0.9-0.4c-0.4-0.1-0.7-0.2-1.1-0.2c-0.1,0-0.1-0.1-0.1-0.3c0-0.1,0-0.3,0.1-0.4
			l1.3,0.1c0.6,0,1.2,0.1,1.6,0.1s1,0,1.6-0.1C33,0,33.4,0,33.5,0c0,0.1,0,0.2,0,0.4c0,0.2,0,0.3-0.1,0.3c-0.3,0-0.7,0.1-1,0.2
			c-0.5,0.1-0.8,0.3-0.9,0.4c-0.2,0.7-0.2,1.5-0.2,2.3v9.3c0,1,0,2.1,0.1,3.4c-0.1,0.1-0.3,0.1-0.5,0.1c-0.3,0-0.6-0.3-0.8-0.6
			L20.7,2.3v10.4c0,0.8,0,1.5,0.2,2.3c0,0.1,0.3,0.2,0.8,0.4c0.3,0.1,0.7,0.1,1,0.2c0,0,0.1,0.1,0.1,0.3c0,0.1,0,0.3,0,0.4
			c-1.6-0.1-2.6-0.1-2.8-0.1l-2.8,0.1c-0.1-0.1-0.1-0.2-0.1-0.4c0-0.2,0-0.3,0.1-0.3c0.4,0,0.7-0.1,1.1-0.2c0.5-0.1,0.8-0.3,0.8-0.4
			c0.2-0.7,0.3-1.5,0.2-2.3V3c0-0.6,0-1.2-0.2-1.8c0-0.1-0.3-0.2-0.8-0.4c-0.4-0.1-0.7-0.1-1.1-0.2c-0.1,0-0.1-0.1-0.1-0.3
			c0-0.1,0-0.3,0.1-0.4L19.7,0c0.8,0,1.5,0,2,0C22.3,1.2,25,5.1,30,12c0.1-0.3,0.1-0.7,0.1-1L30,3.4z"/>
		<path d="M50.5,44.6L50.5,44.6c0-0.2-0.1-0.2-0.1-0.3c0,0,0-0.1-0.1-0.1c0,0,0,0,0,0c0,0-0.1-0.1-0.2-0.1h-0.1l-8.7-2.7
			c-0.4-2.2-1.3-4.2-2.6-6l3.3-6.2c0.2-0.3,0.1-0.6-0.2-0.9c-0.2-0.2-0.6-0.3-0.8-0.2l-6.3,3.2c-1.8-1.3-3.8-2.2-6-2.6L26,20v0
			c0-0.1-0.1-0.1-0.1-0.2s0-0.1-0.1-0.1s-0.1-0.1-0.2-0.1h-0.1c-0.1,0-0.2-0.1-0.3-0.1c-0.1,0-0.2,0-0.2,0.1H25
			c-0.1,0-0.1,0.1-0.2,0.1c0,0-0.1,0-0.1,0.1c0,0,0,0,0,0c0,0-0.1,0.1-0.1,0.2v0.1l-2.7,8.7c-2.2,0.5-4.2,1.3-6,2.6l-6.3-3.3
			C9.4,28,9,28.1,8.8,28.3c-0.2,0.2-0.3,0.6-0.2,0.9l3.2,6.2c-1.3,1.8-2.1,3.8-2.6,5.9l-8.8,2.7H0.4c-0.1,0-0.1,0.1-0.2,0.1
			c0,0-0.1,0-0.1,0.1l0,0c0,0.1-0.1,0.1-0.1,0.2v0.1c0,0.1-0.1,0.2-0.1,0.3c0,0.1,0,0.2,0.1,0.2v0.1c0,0.1,0.1,0.1,0.1,0.2
			c0,0,0,0.1,0.1,0.1c0,0,0,0,0,0c0,0,0.1,0.1,0.2,0.1h0.1l8.7,2.7c0.4,2.2,1.3,4.2,2.6,6.1l-3.2,6.2c-0.2,0.3-0.1,0.6,0.2,0.8
			c0.1,0.1,0.3,0.2,0.5,0.2c0.1,0,0.2,0,0.3-0.1l6.2-3.1c1.8,1.3,3.9,2.2,6.1,2.7l2.7,8.7v0.1c0,0.1,0.1,0.1,0.1,0.2s0,0.1,0.1,0.1
			s0.1,0.1,0.2,0.1h0.1c0.1,0,0.2,0.1,0.2,0.1c0.1,0,0.2,0,0.3-0.1h0.1c0.1,0,0.1-0.1,0.2-0.1c0,0,0.1,0,0.1-0.1c0,0,0,0,0,0
			c0,0,0.1-0.1,0.1-0.2v-0.1l2.7-8.7c2.2-0.5,4.2-1.3,6-2.6l6.3,3.2c0.1,0.1,0.2,0.1,0.3,0.1c0.2,0,0.4-0.1,0.5-0.2
			c0.2-0.2,0.3-0.6,0.2-0.8l-3.2-6.3c1.3-1.8,2.2-3.8,2.6-6l8.7-2.7h0.1c0.1,0,0.1-0.1,0.2-0.1c0,0,0.1,0,0.1-0.1l0,0
			c0-0.1,0-0.1,0.1-0.2c0.1-0.1,0.1-0.2,0.1-0.3C50.7,44.7,50.6,44.6,50.5,44.6z M21.4,30.5l-1,3.2l-2.9-1.5
			C18.7,31.5,20,30.9,21.4,30.5z M19.9,35.2l-1,3.2l-3.2,1L11,30.6L19.9,35.2z M12.7,36.9l1.5,2.8l-3.2,1
			C11.4,39.4,11.9,38.1,12.7,36.9z M19.2,39.8l4.4,4.4H5.5L19.2,39.8z M23.6,45.5l-4.4,4.4L5.5,45.5L23.6,45.5z M10.9,48.7l3.2,1
			l-1.5,3C11.9,51.4,11.3,50.1,10.9,48.7z M15.6,50.2l3.2,1l1,3.2L11,59.1L15.6,50.2z M17.4,57.4l3-1.5l1,3.2
			C20,58.8,18.6,58.2,17.4,57.4z M24.6,64.7l-4.4-13.8l4.4-4.4L24.6,64.7z M24.6,43l-4.4-4.4l4.4-13.8V43z M39.6,40.9l-3.2-1
			l1.5-2.9C38.7,38.2,39.3,39.5,39.6,40.9L39.6,40.9z M35,39.5l-3.2-1l-1-3.2l8.9-4.6L35,39.5z M33.2,32.2l-2.9,1.5l-1-3.2
			C30.7,30.9,32,31.5,33.2,32.2L33.2,32.2z M26,25l4.4,13.8L26,43.1V25z M26,46.6l4.4,4.4L26,64.8V46.6z M29.3,59.2l1-3.2l2.9,1.5
			C32,58.2,30.6,58.8,29.3,59.2L29.3,59.2z M30.7,54.5l1-3.2l3.2-1l4.6,8.9L30.7,54.5z M37.9,52.7l-1.5-2.9l3.2-1
			C39.3,50.2,38.7,51.5,37.9,52.7L37.9,52.7z M31.4,49.9L27,45.5h18.1L31.4,49.9z M27.1,44.2l4.4-4.4l13.8,4.4H27.1z"/>
	</g>
</g>
</svg>
